<svg width="130" height="47" fill="none" xmlns="http://www.w3.org/2000/svg"><path transform="scale(1.004 .99599) rotate(45 11.798 28.482)" fill="url(#paint0_linear)" d="M0 0h33.368v33.368H0z"/><ellipse cx="23.689" cy="23.5" rx="12.69" ry="12.589" fill="#111"/><path d="M21.558 31.25c-1.48 0-2.6-.256-3.356-.768-.74-.512-1.111-1.136-1.111-1.872 0-.544.16-.976.483-1.296.338-.336.78-.504 1.328-.504.129 0 .258.016.386.048.13.016.218.024.266.024l.314.048v3.6a.956.956 0 00.338.12c.274.08.564.12.87.12 1.931 0 2.898-1.56 2.898-4.68V14.81l-1.45-.36v-.36h6.883v.36l-1.449.36v11.28c0 1.664-.523 2.944-1.57 3.84-1.046.88-2.656 1.32-4.83 1.32zm14.486 0c-1.433 0-2.536-.304-3.309-.912-.773-.608-1.16-1.384-1.16-2.328 0-.624.138-1.24.412-1.848a3.41 3.41 0 01.434-.792 29.86 29.86 0 012.15-.432c1.738-.288 3.276-.464 4.612-.528v-.72c0-1.776-.217-3-.652-3.672-.435-.672-1.103-1.008-2.004-1.008-.339 0-.628.04-.87.12l-.338.12v3.6l-.314.072a5.435 5.435 0 01-.652.048c-.547 0-.99-.16-1.328-.48-.322-.336-.483-.776-.483-1.32 0-.736.37-1.36 1.11-1.872.758-.512 1.877-.768 3.358-.768 1.255 0 2.334.224 3.236.672.917.432 1.61 1.04 2.077 1.824.483.768.724 1.656.724 2.664v6.48l1.45.36v.36h-2.174c-.966 0-1.715-.296-2.246-.888a2.534 2.534 0 01-.532-.912c-.225.4-.49.76-.797 1.08-.724.72-1.626 1.08-2.704 1.08zm.966-.84c.595 0 1.135-.32 1.618-.96.177-.24.362-.56.555-.96v-3.48c-.74 0-1.449.04-2.125.12-.5.064-.837.104-1.014.12-.08.176-.161.416-.242.72a7.011 7.011 0 00-.241 1.8c0 .896.136 1.56.41 1.992.274.432.62.648 1.039.648zm8.705 4.92l1.449-.36V19.61l-1.45-.36v-.36h2.174c.95 0 1.699.304 2.246.912.21.24.387.536.532.888a3.85 3.85 0 01.797-1.08c.724-.72 1.626-1.08 2.704-1.08.95 0 1.795.248 2.536.744.74.48 1.328 1.2 1.763 2.16.435.944.652 2.096.652 3.456 0 2.048-.483 3.624-1.449 4.728-.95 1.088-2.238 1.632-3.864 1.632-.773 0-1.449-.16-2.029-.48a3.657 3.657 0 01-.748-.48v4.68l1.449.36v.36h-6.762v-.36zm7.124-4.8c.692 0 1.224-.4 1.594-1.2.386-.8.58-2.28.58-4.44 0-2.064-.178-3.496-.532-4.296-.338-.816-.764-1.224-1.28-1.224-.611 0-1.159.32-1.642.96-.21.272-.386.592-.531.96v8.28c.225.224.402.384.531.48.435.32.861.48 1.28.48zm12.921.72c-1.434 0-2.537-.304-3.31-.912-.772-.608-1.159-1.384-1.159-2.328 0-.624.137-1.24.411-1.848a3.45 3.45 0 01.435-.792c.66-.16 1.376-.304 2.149-.432 1.739-.288 3.276-.464 4.613-.528v-.72c0-1.776-.218-3-.652-3.672-.435-.672-1.103-1.008-2.005-1.008-.338 0-.628.04-.87.12l-.337.12v3.6l-.314.072a5.435 5.435 0 01-.652.048c-.548 0-.99-.16-1.329-.48-.322-.336-.483-.776-.483-1.32 0-.736.37-1.36 1.111-1.872.757-.512 1.876-.768 3.357-.768 1.256 0 2.335.224 3.236.672.918.432 1.61 1.04 2.077 1.824.483.768.725 1.656.725 2.664v6.48l1.448.36v.36h-2.173c-.966 0-1.715-.296-2.246-.888a2.534 2.534 0 01-.531-.912c-.226.4-.491.76-.797 1.08-.725.72-1.626 1.08-2.705 1.08zm.965-.84c.596 0 1.135-.32 1.618-.96.177-.24.362-.56.556-.96v-3.48c-.741 0-1.45.04-2.126.12-.499.064-.837.104-1.014.12a4.78 4.78 0 00-.241.72 7.011 7.011 0 00-.242 1.8c0 .896.137 1.56.41 1.992.274.432.62.648 1.04.648zm8.947.12l1.449-.36V19.61l-1.45-.36v-.36h2.174c.95 0 1.699.304 2.246.912.21.24.387.536.532.888a4.58 4.58 0 01.796-1.08c.725-.72 1.627-1.08 2.705-1.08.902 0 1.707.192 2.415.576.725.368 1.288.856 1.69 1.464.403.608.605 1.248.605 1.92v7.68l1.448.36v.36h-3.139c-1.449 0-2.174-.72-2.174-2.16v-6.24c0-1.008-.185-1.776-.555-2.304-.354-.544-.773-.816-1.256-.816-.612 0-1.159.32-1.642.96-.21.272-.386.592-.531.96v8.88l1.449.36v.36h-6.762v-.36zm22.581.72c-2.061 0-3.663-.56-4.806-1.68-1.143-1.136-1.715-2.696-1.715-4.68 0-1.296.25-2.424.749-3.384.5-.96 1.191-1.696 2.077-2.208.901-.512 1.932-.768 3.091-.768 1.16 0 2.174.216 3.043.648.885.432 1.562 1.016 2.028 1.752.483.72.725 1.52.725 2.4 0 .4-.04.744-.121 1.032l-.121.408c-.692.144-1.44.264-2.245.36-1.69.24-3.397.36-5.12.36 0 1.856.257 3.184.773 3.984.515.784 1.223 1.176 2.125 1.176.628 0 1.207-.144 1.739-.432a3.494 3.494 0 001.28-1.176c.321-.496.483-1 .483-1.512h.603c0 .64-.193 1.248-.579 1.824-.387.576-.926 1.04-1.618 1.392-.693.336-1.49.504-2.391.504zm-2.415-6.36c1.03 0 1.867-.04 2.511-.12.274-.016.564-.056.87-.12.016-.08.056-.256.12-.528.081-.4.121-.824.121-1.272 0-1.328-.177-2.296-.531-2.904-.354-.624-.78-.936-1.28-.936-1.207 0-1.811 1.96-1.811 5.88zm15.083 6.36c-.998 0-1.892-.216-2.681-.648a4.044 4.044 0 01-.941-.672c-.258.352-.54.624-.846.816a3.44 3.44 0 01-.483.264h-.603v-4.08h.966a6.76 6.76 0 00.917 1.872c.854 1.232 1.916 1.848 3.188 1.848.676 0 1.183-.16 1.521-.48.355-.336.532-.816.532-1.44 0-.528-.242-.968-.725-1.32-.467-.368-1.207-.816-2.222-1.344a28.114 28.114 0 01-2.125-1.152 5.557 5.557 0 01-1.376-1.296c-.371-.528-.556-1.144-.556-1.848 0-.96.411-1.736 1.232-2.328.837-.608 2.117-.912 3.84-.912.853 0 1.642.224 2.366.672.355.208.661.424.918.648a3.73 3.73 0 01.845-.816 4.88 4.88 0 01.483-.264h.604v4.08h-.966a8.565 8.565 0 00-.893-1.848c-.805-1.248-1.763-1.872-2.874-1.872-.435 0-.805.16-1.111.48-.306.32-.459.72-.459 1.2 0 .608.258 1.12.773 1.536.515.4 1.296.864 2.342 1.392.854.432 1.53.816 2.029 1.152.515.32.95.72 1.304 1.2.37.48.555 1.04.555 1.68 0 2.32-1.851 3.48-5.554 3.48zm13.887 0c-2.061 0-3.663-.56-4.806-1.68-1.143-1.136-1.714-2.696-1.714-4.68 0-1.296.249-2.424.748-3.384s1.192-1.696 2.077-2.208c.902-.512 1.932-.768 3.091-.768 1.16 0 2.174.216 3.043.648.886.432 1.562 1.016 2.029 1.752.483.72.724 1.52.724 2.4 0 .4-.04.744-.12 1.032l-.121.408c-.693.144-1.441.264-2.246.36-1.691.24-3.397.36-5.12.36 0 1.856.258 3.184.773 3.984.515.784 1.223 1.176 2.125 1.176a3.59 3.59 0 001.739-.432 3.494 3.494 0 001.28-1.176c.322-.496.483-1 .483-1.512h.604c0 .64-.194 1.248-.58 1.824-.386.576-.926 1.04-1.618 1.392-.692.336-1.489.504-2.391.504zm-2.415-6.36c1.03 0 1.868-.04 2.512-.12.273-.016.563-.056.869-.12.016-.08.056-.256.121-.528.08-.4.121-.824.121-1.272 0-1.328-.178-2.296-.532-2.904-.354-.624-.781-.936-1.28-.936-1.207 0-1.811 1.96-1.811 5.88zM47.308 10.605l.994 2.897.22.838.216-.838.937-2.897h.672l.578 4.459h-.504l-.312-2.774-.13-1.319-.366 1.319-.952 2.818h-.274l-1-2.818-.4-1.319-.112 1.319-.269 2.774-.483.003.478-4.462h.707zm8.602 3.235h-1.96l-.451 1.224h-.53l1.733-4.506h.489l1.692 4.506h-.54l-.433-1.225zm-.13-.373l-.719-2.036-.112-.351-.112.354-.749 2.033h1.693zm3.865-2.862v4.459h-.504v-4.459h.504zm3.278 0v4.07h1.855v.389h-2.362v-4.459h.508zm7.308 2.276c0-.496.09-.919.272-1.268a1.86 1.86 0 01.746-.788 2.119 2.119 0 011.06-.267c.382 0 .716.09 1.003.273.287.181.508.438.663.77.158.332.236.717.236 1.154 0 .5-.088.928-.265 1.284a1.852 1.852 0 01-.728.802c-.309.18-.663.27-1.064.27-.39 0-.73-.095-1.02-.284a1.878 1.878 0 01-.67-.794 2.727 2.727 0 01-.233-1.152zm3.476-.088c0-.345-.055-.659-.165-.94a1.483 1.483 0 00-.486-.67 1.234 1.234 0 00-.773-.247c-.294 0-.559.072-.793.217a1.481 1.481 0 00-.551.65c-.136.29-.203.642-.203 1.058 0 .344.057.657.17.94.115.284.283.51.505.677.222.168.488.252.799.252.298 0 .56-.074.784-.223.226-.15.4-.37.525-.662.125-.29.188-.641.188-1.052zm5.985 1.972c.076.143.133.242.17.299h-.566a.529.529 0 01-.059-.09 10.954 10.954 0 01-.1-.209 9.8 9.8 0 01-.162-.363c-.106-.246-.2-.45-.28-.61a2.234 2.234 0 00-.283-.433.666.666 0 00-.345-.24c-.157.004-.29.005-.398.005l-.516-.002v1.942h-.498v-4.459l.295-.003c.073 0 .211-.006.416-.018.316-.013.531-.02.645-.02 1.026 0 1.539.41 1.539 1.23 0 .329-.08.6-.242.812-.16.21-.384.356-.669.437.1.058.197.15.289.275.092.125.176.26.25.404.075.143.165.324.269.545.094.21.176.375.245.498zm-2.539-1.995c.116.012.395.018.838.018.324-.004.58-.087.766-.25.187-.164.281-.404.283-.72 0-.213-.04-.384-.118-.513a.654.654 0 00-.36-.284 1.825 1.825 0 00-.63-.09c-.146 0-.29.003-.434.01-.143.009-.258.02-.345.036v1.793zm5.021-2.165c.21 0 .328-.001.353-.003.083 0 .23-.006.443-.018.275-.013.46-.02.554-.02.47 0 .863.084 1.18.252.316.168.552.412.71.732.157.319.234.704.232 1.158 0 .484-.084.907-.253 1.268a1.893 1.893 0 01-.737.84c-.322.198-.709.297-1.159.297-.074 0-.23-.006-.465-.018a9.426 9.426 0 00-.531-.023 7.029 7.029 0 00-.327-.006v-4.459zm1.353 4.137c.324-.004.606-.078.846-.22.24-.145.425-.364.557-.66.132-.294.198-.662.198-1.104 0-.636-.143-1.101-.428-1.394-.283-.293-.714-.44-1.294-.44-.218 0-.463.014-.734.041v3.724a5.99 5.99 0 00.855.053zm7.048-4.137v.384h-2.03v1.579h1.482v.384h-1.483v1.722h2.247v.39h-2.745v-4.459h2.53zm5.566 4.16c.077.143.134.242.171.299h-.566a.517.517 0 01-.059-.09 8.752 8.752 0 01-.262-.572c-.106-.246-.2-.45-.28-.61a2.234 2.234 0 00-.283-.433.666.666 0 00-.345-.24c-.157.004-.29.005-.398.005l-.516-.002v1.942h-.498v-4.459l.295-.003c.072 0 .21-.006.415-.018.317-.013.532-.02.646-.02 1.026 0 1.539.41 1.539 1.23 0 .329-.08.6-.242.812-.161.21-.384.356-.67.437.101.058.197.15.29.275.092.125.176.26.25.404.075.143.164.324.269.545.094.21.175.375.244.498zm-2.538-1.995c.116.012.395.018.837.018.325-.004.58-.087.767-.25.186-.164.28-.404.283-.72 0-.213-.04-.384-.118-.513a.655.655 0 00-.36-.284 1.824 1.824 0 00-.63-.09c-.146 0-.29.003-.434.01-.144.009-.258.02-.345.036v1.793zm8.735-2.165c.118 0 .277-.006.477-.018a7.43 7.43 0 01.525-.02c.486 0 .851.09 1.097.272.247.18.371.437.371.77 0 .153-.024.304-.073.452-.05.146-.128.276-.236.39a.822.822 0 01-.41.228 1.095 1.095 0 01.887.536.994.994 0 01.142.522c0 .445-.138.785-.413 1.02-.273.232-.725.348-1.356.348-.122 0-.358-.009-.708-.026a27.15 27.15 0 00-.312-.015h-.262v-4.462l.271.003zm1.247 1.986a.733.733 0 00.542-.266c.132-.162.198-.377.198-.645 0-.508-.36-.761-1.079-.761-.098 0-.219.003-.363.011a3.771 3.771 0 00-.321.024v1.626c.076.01.233.014.469.014l.554-.003zm-.18 2.15c.401 0 .702-.072.902-.216.202-.147.304-.39.304-.73 0-.287-.093-.499-.277-.635-.185-.137-.452-.208-.802-.214h-.395c-.323 0-.514.004-.575.011v1.726c.206.04.487.059.843.059zm7.187.024c.077.143.134.242.171.299h-.566a.523.523 0 01-.059-.09l-.068-.139-.017-.038a2.257 2.257 0 00-.74-1.438.665.665 0 00-.345-.24c-.157.004-.29.005-.398.005l-.516-.002v1.942h-.498v-4.459l.294-.003c.073 0 .212-.006.416-.018.317-.013.532-.02.646-.02 1.026 0 1.539.41 1.539 1.23 0 .329-.081.6-.242.812-.161.21-.384.356-.669.437.1.058.196.15.289.275.092.125.175.26.25.404.075.143.164.324.268.545.095.21.176.375.245.498zm-2.538-1.995c.116.012.395.018.837.018.324-.004.58-.087.767-.25.186-.164.281-.404.283-.72 0-.213-.04-.384-.118-.513a.657.657 0 00-.36-.284 1.823 1.823 0 00-.631-.09c-.145 0-.29.003-.433.01-.144.009-.259.02-.345.036v1.793zm5.569-2.165v4.459h-.504v-4.459h.504zm2.771 0c.21 0 .328-.001.353-.003.083 0 .23-.006.443-.018.275-.013.46-.02.554-.02.47 0 .863.084 1.179.252.316.168.553.412.711.732.157.319.234.704.232 1.158 0 .484-.084.907-.253 1.268a1.895 1.895 0 01-.737.84c-.322.198-.709.297-1.159.297-.074 0-.23-.006-.465-.018a9.464 9.464 0 00-.531-.023 7.049 7.049 0 00-.327-.006v-4.459zm1.353 4.137c.324-.004.606-.078.846-.22.24-.145.425-.364.557-.66.132-.294.198-.662.198-1.104 0-.636-.143-1.101-.428-1.394-.283-.293-.714-.44-1.294-.44-.218 0-.463.014-.734.041v3.724a5.98 5.98 0 00.855.053zm7.048-4.137v.384h-2.031v1.579h1.483v.384h-1.483v1.722h2.247v.39h-2.745v-4.459h2.529zm2.444 3.835c.126.076.293.142.501.196.209.053.415.08.619.08.321 0 .57-.061.749-.182.179-.121.269-.302.269-.542a.647.647 0 00-.13-.408c-.087-.113-.2-.21-.339-.29a6.872 6.872 0 00-.605-.298c-.782-.354-1.173-.8-1.173-1.336 0-.258.07-.47.21-.633.141-.166.321-.285.539-.358a2.16 2.16 0 01.699-.11c.255 0 .471.024.648.072.177.047.315.103.413.167l-.103.39a1.476 1.476 0 00-.407-.176 2.05 2.05 0 00-.554-.064c-.167 0-.325.024-.472.073a.837.837 0 00-.36.217.508.508 0 00-.135.357c0 .16.036.297.109.41a1.1 1.1 0 00.312.3c.136.085.327.187.572.304.262.125.478.242.649.351.173.108.318.243.436.405.12.162.18.352.18.571 0 .256-.062.472-.186.648a1.121 1.121 0 01-.519.395 2.06 2.06 0 01-.769.132 3.487 3.487 0 01-.994-.144 1.14 1.14 0 01-.28-.12l.121-.407z" fill="#fff"/><defs><linearGradient id="paint0_linear" x1="0" y1="1.752" x2="33.368" y2="33.368" gradientUnits="userSpaceOnUse"><stop stop-color="#F93A3A"/><stop offset="1" stop-color="#A52929"/></linearGradient></defs></svg>