<svg width="47" height="47" fill="none" xmlns="http://www.w3.org/2000/svg"><path transform="rotate(45 23.5 0)" fill="url(#paint0_linear)" d="M23.5 0h33.234v33.234H23.5z"/><circle cx="23.5" cy="23.5" fill="#111" r="12.589"/><path d="M21.386 31.25c-1.47 0-2.58-.256-3.33-.768-.735-.512-1.102-1.136-1.102-1.872 0-.544.16-.976.48-1.296.335-.336.774-.504 1.317-.504.128 0 .255.016.383.048.128.016.216.024.264.024l.311.048v3.6a.944.944 0 00.335.12c.272.08.56.12.863.12 1.917 0 2.875-1.56 2.875-4.68V14.81l-1.438-.36v-.36h6.828v.36l-1.437.36v11.28c0 1.664-.52 2.944-1.558 3.84-1.038.88-2.635 1.32-4.79 1.32z" fill="#fff"/><defs><linearGradient id="paint0_linear" x1="23.5" y1="1.745" x2="56.734" y2="33.234" gradientUnits="userSpaceOnUse"><stop stop-color="#F93A3A"/><stop offset="1" stop-color="#A52929"/></linearGradient></defs></svg>