<svg width="28" height="56" fill="none" xmlns="http://www.w3.org/2000/svg"><path d="M1.2 50.865c.66.174 1.232.391 1.849.609.924.348 1.805.696 2.597 1.088.792.391 1.585.783 2.245 1.305.353.261.66.522.925.827.264.304.528.653.66 1.044a10.45 10.45 0 01-2.201.218c-.66 0-1.277-.087-1.85-.218a8.778 8.778 0 01-2.905-1.131c-.792-.479-1.453-1.088-1.893-1.74-.264-.436-.484-.87-.616-1.35-.044-.217.088-.435.308-.565.264-.13.572-.174.88-.087zm-.045-.783a6.515 6.515 0 001.541-.914c.705-.566 1.233-1.218 1.585-1.915a6.31 6.31 0 00.66-2.132 4.861 4.861 0 00-.308-2.35 5.301 5.301 0 00-.88.827c-.264.261-.529.566-.749.827-.484.566-.924 1.175-1.364 1.784-.44.61-.837 1.262-1.145 1.958-.176.435-.396.87-.484 1.349-.044.218.044.435.308.566.22.13.572.13.836 0zm6.384-.566c.66-.044 1.277 0 1.893 0 .968.044 1.893.13 2.774.261.88.13 1.717.305 2.465.566.396.13.748.304 1.1.522.353.218.661.435.925.827-.704.391-1.365.609-1.981.783-.616.174-1.233.304-1.761.348-1.145.13-2.113 0-3.038-.218-.88-.217-1.673-.565-2.29-1.087a4.567 4.567 0 01-1.012-1.045c-.132-.174-.044-.435.132-.609.177-.217.485-.348.793-.348zm-.309-.74c.485-.435.837-.87 1.145-1.305.484-.74.792-1.523.924-2.263a6.22 6.22 0 000-2.219c-.088-.348-.176-.74-.352-1.088-.176-.348-.352-.696-.616-1.044-.264.348-.44.696-.616 1.044-.177.348-.353.697-.485 1.045-.308.696-.528 1.392-.748 2.088-.22.696-.396 1.436-.484 2.176-.044.478-.088.914-.044 1.436 0 .217.176.391.44.435.352 0 .66-.13.836-.305zm5.9-2.48a15.87 15.87 0 011.761-.522c.925-.261 1.806-.392 2.642-.522.836-.13 1.673-.174 2.465-.087.397.043.793.087 1.19.174.395.087.748.26 1.1.522-.573.522-1.1.914-1.63 1.262-.527.348-1.056.565-1.54.783a9.152 9.152 0 01-2.862.61 6.512 6.512 0 01-2.465-.349c-.44-.174-.88-.392-1.233-.696-.176-.13-.176-.348-.044-.61.132-.26.352-.478.617-.565zm-.484-.609c.308-.522.572-1.044.704-1.567.265-.826.309-1.653.265-2.393-.088-.74-.264-1.436-.617-2.088-.176-.305-.352-.653-.616-.914-.22-.305-.528-.566-.88-.827-.177.392-.265.783-.353 1.175-.088.392-.132.74-.176 1.131a18.61 18.61 0 00-.132 2.176c0 .74.044 1.48.176 2.175.088.436.176.914.352 1.35a.535.535 0 00.573.26.918.918 0 00.704-.478zm4.93-4.047a29.691 29.691 0 011.541-.957c.793-.479 1.585-.827 2.378-1.175.792-.304 1.54-.565 2.333-.696.352-.087.704-.13 1.1-.13.397 0 .793.043 1.19.217-.397.61-.793 1.131-1.233 1.566-.397.436-.837.784-1.277 1.132-.837.609-1.673 1.044-2.51 1.305-.836.261-1.628.392-2.42.305-.485-.044-.925-.13-1.366-.348-.176-.087-.264-.305-.22-.566.088-.261.264-.522.484-.653zm-.616-.435c.176-.609.22-1.131.264-1.697 0-.87-.132-1.61-.396-2.35-.265-.696-.617-1.305-1.101-1.827a4.28 4.28 0 00-.793-.74c-.308-.217-.616-.435-1.012-.565-.044.435-.044.826-.044 1.218s.044.74.088 1.131c.088.74.264 1.436.44 2.132.176.697.44 1.393.749 2.046.22.391.44.783.704 1.174.132.174.352.218.616.087.22-.13.44-.348.485-.609zm3.61-5.265c.397-.478.793-.87 1.19-1.305a22.527 22.527 0 011.936-1.697c.66-.479 1.321-.914 2.025-1.219a5.202 5.202 0 011.057-.391c.396-.044.793-.087 1.189 0a9.445 9.445 0 01-.749 1.74 6.116 6.116 0 01-.924 1.35c-.66.782-1.32 1.392-2.07 1.827-.704.435-1.452.74-2.2.87a4.79 4.79 0 01-1.365.043c-.22-.043-.353-.217-.353-.478 0-.218.088-.522.265-.74zm-.66-.217a6.49 6.49 0 00-.22-1.654c-.22-.827-.528-1.523-.968-2.132a6.008 6.008 0 00-1.497-1.48c-.308-.217-.616-.348-.924-.521-.353-.131-.705-.262-1.101-.305.044.435.176.827.264 1.175.132.348.22.74.396 1.044.265.696.617 1.305.969 1.914.352.61.748 1.219 1.233 1.741.308.348.616.653.968.914.176.13.396.087.572-.087.177-.087.309-.348.309-.61zm2.113-6.005c.264-.566.528-1.044.792-1.523.44-.74.925-1.436 1.41-2.045.483-.61 1.012-1.175 1.628-1.653.308-.218.616-.436.925-.61.352-.174.66-.304 1.1-.348-.044.696-.132 1.305-.308 1.828a7.34 7.34 0 01-.528 1.48c-.396.956-.88 1.696-1.453 2.262a5.908 5.908 0 01-1.85 1.349 6.203 6.203 0 01-1.276.391c-.176.044-.396-.13-.44-.348a.823.823 0 010-.783zm-.704-.044c-.133-.565-.353-1.044-.617-1.523a6.529 6.529 0 00-1.409-1.784c-.528-.478-1.144-.826-1.805-1.087a3.845 3.845 0 00-1.012-.261c-.352-.044-.705-.087-1.145 0 .176.391.352.74.529 1.088.176.304.396.652.616.913.44.61.88 1.131 1.365 1.61.484.479 1.012.957 1.584 1.349.353.261.749.479 1.145.61.176.086.396 0 .529-.218.22-.174.264-.479.22-.697zm.528-6.352a87.16 87.16 0 01.396-1.61c.22-.827.528-1.567.837-2.263.308-.696.704-1.349 1.144-1.958a4.27 4.27 0 01.749-.783c.264-.218.572-.435.968-.566.132.696.176 1.262.176 1.828a8.18 8.18 0 01-.132 1.523 7.868 7.868 0 01-.88 2.48c-.396.696-.88 1.305-1.41 1.74-.351.261-.704.522-1.144.653-.176.087-.396-.044-.528-.218a1.145 1.145 0 01-.176-.826zm-.705.13c-.264-.522-.616-.914-.924-1.305a5.296 5.296 0 00-1.805-1.349c-.616-.305-1.277-.522-1.937-.566a3.945 3.945 0 00-1.013 0c-.352.044-.704.087-1.056.261.264.349.528.61.792.87.264.262.528.523.793.74.528.435 1.1.87 1.717 1.219.572.348 1.188.696 1.849.913.396.13.792.262 1.232.305.176.044.352-.087.44-.305a.968.968 0 00-.088-.783zm-1.055-6.266c-.044-.565-.044-1.13-.044-1.61 0-.826.088-1.61.22-2.35.132-.739.308-1.479.572-2.131.132-.348.308-.653.485-.958.22-.304.44-.565.748-.783.308.61.484 1.132.616 1.697.132.522.22 1.045.264 1.48.088.957 0 1.784-.22 2.523-.176.74-.484 1.436-.924 2.002a4.576 4.576 0 01-.925.914c-.176.13-.352.087-.528-.087-.132-.174-.264-.435-.264-.697zm-.661.262c-.396-.392-.792-.74-1.232-1.001a5.702 5.702 0 00-2.026-.827c-.66-.13-1.364-.174-1.98-.087-.309.043-.661.13-.97.261-.307.13-.616.261-.968.522.308.261.616.435.969.653.308.174.616.348.924.479.616.304 1.277.522 1.893.74.66.173 1.321.347 1.981.39a6.19 6.19 0 001.277 0c.176-.043.308-.173.352-.434.044-.218-.044-.479-.22-.696zm-2.686-5.744c-.175-.522-.308-1.044-.44-1.523a11.008 11.008 0 01-.396-2.306 11.587 11.587 0 01-.044-2.132c.044-.348.088-.696.22-1 .088-.349.22-.654.485-.958.44.478.792.957 1.056 1.436.264.478.484.913.66 1.349.309.87.485 1.697.485 2.436 0 .783-.088 1.48-.352 2.089-.177.391-.353.74-.617 1.088-.132.13-.308.174-.528.043-.264-.043-.44-.26-.528-.522zm-.527.436a4.939 4.939 0 00-1.409-.61c-.748-.218-1.453-.305-2.113-.261-.66.043-1.321.174-1.893.479-.309.13-.573.304-.837.478-.264.218-.528.435-.748.74.352.174.704.26 1.056.348.353.087.66.174 1.013.217.66.087 1.32.175 1.981.175.66 0 1.32 0 1.981-.131.396-.087.793-.174 1.189-.348.176-.087.264-.261.22-.479a.9.9 0 00-.44-.609zM12.03 7.354c-.309-.436-.573-.87-.837-1.306a30.333 30.333 0 01-1.057-2.045c-.264-.653-.528-1.349-.66-2.001-.044-.349-.088-.653-.088-1.001 0-.348.044-.696.176-1.001a9.762 9.762 0 011.409 1.044c.396.348.704.74 1.012 1.088a6.94 6.94 0 011.145 2.176c.22.696.308 1.392.264 2.088a5.638 5.638 0 01-.264 1.175c-.088.174-.264.261-.484.218-.22-.087-.44-.261-.617-.435zm-.353.521c-.528-.13-1.012-.174-1.497-.218-.748 0-1.453.13-2.069.348-.616.218-1.145.566-1.629.958-.22.217-.44.435-.66.696a5.555 5.555 0 00-.484.87c.396.044.748.044 1.056 0 .352 0 .66-.043 1.013-.087.66-.087 1.276-.217 1.893-.392a12.708 12.708 0 001.805-.652 7.773 7.773 0 001.012-.61c.132-.13.176-.304.088-.522a.819.819 0 00-.528-.391zM3.4 4.83c-.352-.131-.66-.262-1.012-.436s-.705-.305-1.057-.522c.396-.174.749-.261 1.145-.348.396-.044.748-.087 1.145-.087.748 0 1.54.13 2.245.304a8.061 8.061 0 012.069.914c.396.261.792.522 1.1.87.133.13.22.348.133.479a.42.42 0 01-.44.174c-.485-.043-.925-.13-1.365-.218a18.007 18.007 0 01-2.07-.522A13.537 13.537 0 013.4 4.83z" fill="#060606"/></svg>